<svg width="34" height="34" viewBox="0 0 34 34" fill="none" xmlns="http://www.w3.org/2000/svg">
<path d="M27.3594 34H6.64062C2.97892 34 0 31.021 0 27.3594V6.64062C0 2.97898 2.97892 0 6.64062 0H27.3594C31.0211 0 34 2.97898 34 6.64062V27.3594C34 31.021 31.0211 34 27.3594 34ZM6.64062 2.65625C4.44364 2.65625 2.65625 4.44364 2.65625 6.64062V27.3594C2.65625 29.5564 4.44364 31.3438 6.64062 31.3438H27.3594C29.5564 31.3438 31.3438 29.5564 31.3438 27.3594V6.64062C31.3438 4.44364 29.5564 2.65625 27.3594 2.65625H6.64062Z" fill="#0095A0"/>
<path d="M27.3594 7.96875C28.0929 7.96875 28.6875 7.37413 28.6875 6.64062C28.6875 5.90712 28.0929 5.3125 27.3594 5.3125C26.6259 5.3125 26.0312 5.90712 26.0312 6.64062C26.0312 7.37413 26.6259 7.96875 27.3594 7.96875Z" fill="#0095A0"/>
<path d="M22.0469 7.96875C22.7804 7.96875 23.375 7.37413 23.375 6.64062C23.375 5.90712 22.7804 5.3125 22.0469 5.3125C21.3134 5.3125 20.7188 5.90712 20.7188 6.64062C20.7188 7.37413 21.3134 7.96875 22.0469 7.96875Z" fill="#0095A0"/>
<path d="M17 28.6875C16.0288 28.6875 15.0931 28.334 14.3653 27.6921L11.732 25.3698C10.0157 23.8567 9.03125 21.6773 9.03125 19.3906V15.9375C9.03125 14.9544 9.57034 14.056 10.4383 13.593L15.1266 11.0923C15.6998 10.7866 16.3476 10.625 17 10.625C17.6524 10.625 18.3002 10.7866 18.8734 11.0923L23.5618 13.5931C24.4296 14.0559 24.9688 14.9543 24.9688 15.9375V19.3906C24.9688 21.6769 23.9847 23.8559 22.2689 25.369L19.6347 27.6921C18.9069 28.334 17.9712 28.6875 17 28.6875ZM11.6884 15.9367L11.6875 19.3906C11.6875 20.9151 12.3441 22.3682 13.4887 23.3774L16.1222 25.6999C16.3646 25.9136 16.6763 26.0312 17 26.0312C17.3237 26.0312 17.6354 25.9136 17.8778 25.6999L20.512 23.3769C21.6562 22.3678 22.3125 20.9148 22.3125 19.3906V15.9375L17.6233 13.436C17.4308 13.3333 17.2211 13.2812 17 13.2812C16.7789 13.2812 16.5692 13.3333 16.3766 13.436L11.6884 15.9367Z" fill="#89CFD7"/>
<path d="M16.7344 7.96875H6.64062C5.9071 7.96875 5.3125 7.37415 5.3125 6.64062C5.3125 5.9071 5.9071 5.3125 6.64062 5.3125H16.7344C17.4679 5.3125 18.0625 5.9071 18.0625 6.64062C18.0625 7.37415 17.4679 7.96875 16.7344 7.96875Z" fill="#0095A0"/>
</svg>
