<svg width="512" height="512" viewBox="0 0 512 512" fill="none" xmlns="http://www.w3.org/2000/svg">
<g clip-path="url(#clip0_31_12)">
<path fill-rule="evenodd" clip-rule="evenodd" d="M179.712 5.63095e-06C165.168 0.0128094 151.224 5.80078 140.946 16.0914L16.0549 140.91C10.9617 146.006 6.92236 152.056 4.16764 158.714C1.41291 165.372 -0.00325885 172.507 5.63095e-06 179.712V332.288C5.63095e-06 346.843 5.77829 360.814 16.0914 371.054L140.946 495.945C151.23 506.222 165.173 511.997 179.712 512H332.288C346.832 511.987 360.776 506.199 371.054 495.909L495.945 371.054C506.222 360.77 511.997 346.827 512 332.288V179.712C511.987 165.168 506.199 151.224 495.909 140.946L371.09 16.0549C365.994 10.9617 359.944 6.92236 353.286 4.16764C346.628 1.41291 339.493 -0.00325885 332.288 5.63095e-06H179.712Z" fill="#D33C34"/>
<path fill-rule="evenodd" clip-rule="evenodd" d="M283.429 141.714C283.429 134.44 280.539 127.463 275.395 122.319C270.251 117.175 263.275 114.286 256 114.286C248.726 114.286 241.749 117.175 236.605 122.319C231.461 127.463 228.571 134.44 228.571 141.714V260.571C228.571 267.846 231.461 274.822 236.605 279.966C241.749 285.11 248.726 288 256 288C263.275 288 270.251 285.11 275.395 279.966C280.539 274.822 283.429 267.846 283.429 260.571V141.714ZM256 397.714C265.699 397.714 275.001 393.861 281.86 387.003C288.718 380.144 292.571 370.842 292.571 361.143C292.571 351.443 288.718 342.141 281.86 335.283C275.001 328.424 265.699 324.571 256 324.571C246.301 324.571 236.999 328.424 230.14 335.283C223.282 342.141 219.429 351.443 219.429 361.143C219.429 370.842 223.282 380.144 230.14 387.003C236.999 393.861 246.301 397.714 256 397.714Z" fill="white"/>
</g>
<defs>
<clipPath id="clip0_31_12">
<rect width="512" height="512" fill="white"/>
</clipPath>
</defs>
</svg>
