<svg width="34" height="34" viewBox="0 0 34 34" fill="none" xmlns="http://www.w3.org/2000/svg">
<g clip-path="url(#clip0_11_60)">
<path d="M21.1172 9.16406H6.64062C5.9071 9.16406 5.3125 8.56946 5.3125 7.83594C5.3125 7.10241 5.9071 6.50781 6.64062 6.50781H21.1172C21.8507 6.50781 22.4453 7.10241 22.4453 7.83594C22.4453 8.56946 21.8507 9.16406 21.1172 9.16406ZM34 7.83594C34 3.51521 30.4848 0 26.1641 0H7.83594C3.51521 0 0 3.51521 0 7.83594C0 12.1567 3.51521 15.6719 7.83594 15.6719H26.1641C30.4848 15.6719 34 12.1567 34 7.83594ZM26.1641 2.65625C29.0202 2.65625 31.3438 4.97987 31.3438 7.83594C31.3438 10.692 29.0202 13.0156 26.1641 13.0156H7.83594C4.9798 13.0156 2.65625 10.692 2.65625 7.83594C2.65625 4.97987 4.9798 2.65625 7.83594 2.65625H26.1641ZM34 26.1641C34 21.8433 30.4848 18.3281 26.1641 18.3281H7.83594C3.51521 18.3281 0 21.8433 0 26.1641C0 30.4848 3.51521 34 7.83594 34H26.1641C30.4848 34 34 30.4848 34 26.1641ZM26.1641 20.9844C29.0202 20.9844 31.3438 23.3079 31.3438 26.1641C31.3438 29.0202 29.0202 31.3438 26.1641 31.3438H7.83594C4.9798 31.3438 2.65625 29.0202 2.65625 26.1641C2.65625 23.3079 4.9798 20.9844 7.83594 20.9844H26.1641Z" fill="#0095A0"/>
<path d="M15.6719 26.1641C15.6719 27.0809 14.9286 27.8242 14.0117 27.8242C13.0948 27.8242 12.3516 27.0809 12.3516 26.1641C12.3516 25.2472 13.0948 24.5039 14.0117 24.5039C14.9286 24.5039 15.6719 25.2472 15.6719 26.1641ZM8.03516 24.5039C7.11829 24.5039 6.375 25.2472 6.375 26.1641C6.375 27.0809 7.11829 27.8242 8.03516 27.8242C8.95203 27.8242 9.69531 27.0809 9.69531 26.1641C9.69531 25.2472 8.95203 24.5039 8.03516 24.5039ZM19.9883 24.5039C19.0714 24.5039 18.3281 25.2472 18.3281 26.1641C18.3281 27.0809 19.0714 27.8242 19.9883 27.8242C20.9052 27.8242 21.6484 27.0809 21.6484 26.1641C21.6484 25.2472 20.9052 24.5039 19.9883 24.5039ZM25.9648 24.5039C25.048 24.5039 24.3047 25.2472 24.3047 26.1641C24.3047 27.0809 25.048 27.8242 25.9648 27.8242C26.8817 27.8242 27.625 27.0809 27.625 26.1641C27.625 25.2472 26.8817 24.5039 25.9648 24.5039Z" fill="#89CFD7"/>
</g>
<defs>
<clipPath id="clip0_11_60">
<rect width="34" height="34" fill="white"/>
</clipPath>
</defs>
</svg>
