<svg width="100" height="91" viewBox="0 0 100 91" fill="none" xmlns="http://www.w3.org/2000/svg">
<path d="M89 86.5587L95.5 70C96.6463 68.0484 54.8406 7.03707 56.5683 5.95111C50.5311 2.454 42.1954 4.05102 38.2602 10.7505L5.52242 66.4875C0.300584 75.3779 6.73668 86.5587 17.0763 86.5587H89Z" fill="white"/>
<path d="M82.68 90.2202H17.3204C11.0327 90.2202 5.41814 86.9693 2.30144 81.5241C-0.801193 76.1032 -0.764871 69.6513 2.39889 64.2653L35.1367 8.52834C38.2735 3.18758 43.8512 0 50.0574 0H50.0715C56.2838 0.00468676 61.8618 3.20164 64.9931 8.55139L97.6149 64.2881C100.768 69.6744 100.796 76.122 97.6921 81.5356C94.574 86.9736 88.9618 90.2202 82.68 90.2202ZM50.0578 7.81127C46.6507 7.81127 43.591 9.55767 41.8722 12.4844L9.13416 68.2213C7.40689 71.162 7.38697 74.6843 9.08084 77.6436C10.7888 80.6275 13.869 82.4089 17.3204 82.4089H82.68C86.1283 82.4089 89.2071 80.6299 90.9158 77.6501C92.6105 74.6947 92.5946 71.1745 90.8734 68.234L58.2518 12.4971C56.5361 9.56549 53.4758 7.814 50.0656 7.81127C50.0631 7.81127 50.0603 7.81127 50.0578 7.81127Z" fill="#00828C"/>
<path d="M50.0002 63.8807C52.6964 63.8807 54.8822 66.0665 54.8822 68.7627C54.8822 71.459 52.6964 73.6448 50.0002 73.6448C47.3039 73.6448 45.1181 71.459 45.1181 68.7627C45.1181 66.0665 47.3039 63.8807 50.0002 63.8807ZM53.9058 54.6841V30.2516C53.9058 28.0945 52.1573 26.3459 50.0002 26.3459C47.8431 26.3459 46.0945 28.0945 46.0945 30.2516V54.6841C46.0945 56.8411 47.8431 58.5897 50.0002 58.5897C52.1573 58.5897 53.9058 56.8411 53.9058 54.6841Z" fill="#11B3B6"/>
</svg>
