<svg width="70" height="70" viewBox="0 0 70 70" fill="none" xmlns="http://www.w3.org/2000/svg">
<path d="M4 29.4585C4 18.2667 4 12.671 5.32132 10.7884C6.64261 8.90589 11.9041 7.10486 22.4272 3.50277L24.432 2.81652C29.9175 0.93884 32.6601 0 35.5 0C38.3399 0 41.0825 0.93884 46.5681 2.81652L48.5728 3.50277C59.0959 7.10486 64.3575 8.90589 65.6787 10.7884C67 12.671 67 18.2667 67 29.4585V34.9699C67 54.7029 52.1635 64.2792 42.8549 68.3455C40.33 69.4484 39.0675 70 35.5 70C31.9325 70 30.67 69.4484 28.145 68.3455C18.8364 64.2792 4 54.7029 4 34.9699V29.4585Z" fill="#B70606" fill-opacity="0.9"/>
<path d="M23.4691 17.2815C21.7606 15.5728 18.9902 15.5728 17.2815 17.2815C15.5728 18.9902 15.5728 21.7606 17.2815 23.4691L28.7727 34.9601L17.2816 46.451C15.5729 48.1598 15.5729 50.9297 17.2816 52.6384C18.9903 54.3472 21.7607 54.3472 23.4697 52.6384L34.9601 41.1481L46.4505 52.6384C48.1592 54.3472 50.9297 54.3472 52.6384 52.6384C54.3472 50.9297 54.3472 48.1592 52.6384 46.4505L41.1481 34.9601L52.6384 23.4691C54.3472 21.7607 54.3472 18.9903 52.6384 17.2816C50.9297 15.5729 48.1598 15.5729 46.451 17.2816L34.9601 28.7727L23.4691 17.2815Z" fill="white"/>
</svg>
