<svg width="70" height="70" viewBox="0 0 70 70" fill="none" xmlns="http://www.w3.org/2000/svg">
<path d="M5.32132 10.7884C4 12.671 4 18.2667 4 29.4585V34.9699C4 54.7029 18.8364 64.2792 28.145 68.3455C30.67 69.4484 31.9325 70 35.5 70C39.0675 70 40.33 69.4484 42.8549 68.3455C52.1635 64.2792 67 54.7029 67 34.9699V29.4585C67 18.2667 67 12.671 65.6787 10.7884C64.3575 8.90589 59.0959 7.10486 48.5728 3.50277L46.5681 2.81652C41.0825 0.93884 38.3399 0 35.5 0C32.6601 0 29.9175 0.93884 24.432 2.81652L22.4272 3.50277C11.9041 7.10486 6.64261 8.90589 5.32132 10.7884Z" fill="#91B706"/>
<path d="M52.9156 26.2698C54.4855 24.472 54.333 21.7138 52.574 20.1087C50.8151 18.5036 48.1164 18.6598 46.5465 20.4575L29.4013 40.0845L24.4541 34.4211C22.8835 32.6233 20.1847 32.4673 18.4259 34.0726C16.6671 35.6772 16.5143 38.4356 18.0847 40.2335L26.2164 49.5425C27.0264 50.47 28.1848 51 29.4013 51C30.6171 51 31.7755 50.47 32.5855 49.5425L52.9156 26.2698Z" fill="white"/>
</svg>
