<svg width="34" height="34" viewBox="0 0 34 34" fill="none" xmlns="http://www.w3.org/2000/svg">
<path d="M17 23.6406C20.6617 23.6406 23.6406 20.6616 23.6406 17C23.6406 13.3384 20.6617 10.3594 17 10.3594C13.3383 10.3594 10.3594 13.3384 10.3594 17C10.3594 20.6616 13.3384 23.6406 17 23.6406ZM17 13.0156C19.197 13.0156 20.9844 14.803 20.9844 17C20.9844 19.197 19.197 20.9844 17 20.9844C14.803 20.9844 13.0156 19.197 13.0156 17C13.0156 14.803 14.803 13.0156 17 13.0156Z" fill="#89CFD7"/>
<path d="M18.3281 0H15.6719C13.6213 0 11.9531 1.66819 11.9531 3.71875V5.05564C10.9713 5.47247 10.0453 6.0101 9.18723 6.66154L8.02147 5.98852C6.24418 4.96254 3.96784 5.57261 2.94159 7.34971L1.6134 9.65016C0.588288 11.426 1.19896 13.7049 2.97466 14.73L4.10105 15.3803C4.02275 15.9526 3.98437 16.4873 3.98437 17C3.98437 17.5126 4.02275 18.0474 4.10098 18.6195L2.97453 19.2698C1.19896 20.2952 0.588289 22.574 1.61347 24.3497L2.94159 26.6502C3.96644 28.425 6.24192 29.0389 8.02154 28.0112L9.18703 27.3383C10.0449 27.9898 10.9708 28.5274 11.9531 28.9443V30.2812C11.9531 32.3318 13.6213 34 15.6719 34H18.3281C20.3787 34 22.0469 32.3318 22.0469 30.2812V28.9444C23.0292 28.5274 23.9551 27.9898 24.813 27.3384L25.9784 28.0113C27.7565 29.0381 30.0329 28.4261 31.0584 26.6502L32.3865 24.3498C33.4117 22.5741 32.801 20.2953 31.0253 19.2699L29.8989 18.6196C29.9772 18.0473 30.0156 17.5126 30.0156 17C30.0156 16.4873 29.9772 15.9525 29.8989 15.3804L31.0253 14.73C32.801 13.7049 33.4117 11.4261 32.3865 9.65009L31.0583 7.34964C30.0353 5.57826 27.7615 4.95929 25.9785 5.98858L24.8128 6.66161C23.9547 6.01016 23.0287 5.47254 22.0469 5.05571V3.71875C22.0469 1.66819 20.3787 0 18.3281 0ZM23.6796 9.15802L23.8223 9.27974C24.25 9.64464 24.8612 9.70069 25.3483 9.41946L27.3064 8.28889C27.822 7.99133 28.4692 8.1778 28.758 8.67777L30.086 10.978C30.3789 11.4854 30.2045 12.1366 29.6971 12.4295L27.7739 13.5399C27.2869 13.8211 27.0298 14.3785 27.132 14.9315L27.1662 15.1164C27.2962 15.8184 27.3594 16.4346 27.3594 17C27.3594 17.5653 27.2962 18.1814 27.1662 18.8837L27.1321 19.0682C27.0299 19.6212 27.287 20.1786 27.774 20.4598L29.6971 21.5701C30.2045 21.8632 30.3791 22.5143 30.0861 23.0216L28.7581 25.3219C28.468 25.8242 27.8203 26.0075 27.3066 25.7109L25.3484 24.5803C24.8613 24.299 24.25 24.3552 23.8222 24.7203L23.6795 24.842C22.7128 25.667 21.626 26.2981 20.4491 26.7178L20.2728 26.7806C19.7438 26.9692 19.3908 27.4701 19.3908 28.0316V30.2812C19.3908 30.8672 18.9141 31.3438 18.3283 31.3438H15.672C15.0862 31.3438 14.6095 30.8672 14.6095 30.2812V28.0316C14.6095 27.4701 14.2564 26.9692 13.7275 26.7806L13.5511 26.7177C12.3742 26.298 11.2874 25.6669 10.3207 24.842L10.178 24.7203C9.75029 24.3552 9.13876 24.299 8.6518 24.5803L6.69348 25.711C6.1795 26.0078 5.53184 25.8235 5.24217 25.322L3.91405 23.0216C3.62119 22.5142 3.79571 21.8631 4.30299 21.5701L6.22618 20.4598C6.7132 20.1787 6.97033 19.6213 6.86813 19.0682L6.83393 18.8833C6.70377 18.1814 6.64062 17.5653 6.64062 17C6.64062 16.4346 6.70377 15.8184 6.8338 15.1161L6.86793 14.9316C6.97013 14.3786 6.713 13.8212 6.22598 13.54L4.30279 12.4296C3.79538 12.1367 3.62093 11.4855 3.91385 10.9781L5.24191 8.6779C5.53203 8.17554 6.17989 7.99239 6.69341 8.28889L8.65167 9.41946C9.13862 9.70062 9.74989 9.64464 10.1776 9.27974L10.3203 9.15795C11.2877 8.33279 12.3746 7.70166 13.5509 7.28224L13.7272 7.21936C14.2563 7.03076 14.6094 6.52993 14.6094 5.96839V3.71875C14.6094 3.13285 15.086 2.65625 15.6719 2.65625H18.3281C18.914 2.65625 19.3906 3.13285 19.3906 3.71875V5.96839C19.3906 6.52993 19.7437 7.03076 20.2726 7.21936L20.449 7.28231C21.6253 7.70173 22.7123 8.33286 23.6796 9.15802Z" fill="#0095A0"/>
</svg>
